<?xml version="1.0" encoding="UTF-8"?>
<!-- Generator: Adobe Illustrator 16.0.0, SVG Export Plug-In . SVG Version: 6.00 Build 0)  -->
<svg width="266.72" height="119.45" enable-background="new 0 0 283.46 283.46" version="1.1" viewBox="0 0 266.72 119.45" xml:space="preserve" xmlns="http://www.w3.org/2000/svg">
<path d="m133.26 90.583s4.704-65.858-60.101-72.135c-64.803-6.269-72.982-18.448-72.982-18.448s-10.633 155.91 132.4 111.49z" fill="#538f40"/>
<path d="m133.21 83.225c-0.976-17.299-8.558-59.798-60.048-64.777-64.804-6.269-72.983-18.448-72.983-18.448s-0.087 1.27-0.138 3.482c8.464 23.663 47.747 115.98 133.17 79.743z" fill="#65b045"/>
<path d="m133.44 90.583s-4.693-65.858 60.1-72.135c64.813-6.269 73.011-18.448 73.011-18.448s10.617 155.91-132.4 111.49z" fill="#538f40"/>
<path d="m133.5 83.225c0.96-17.299 8.568-59.798 60.026-64.777 64.811-6.269 73.008-18.448 73.008-18.448s0.076 1.27 0.148 3.482c-8.476 23.663-47.75 115.98-133.18 79.743z" fill="#65b045"/>
<path d="m135.43 109.54c0 1.158-0.931 2.097-2.102 2.097-1.141 0-2.088-0.938-2.088-2.097v-24.216c0-1.155 0.94-2.094 2.088-2.094 1.171 0 2.102 0.938 2.102 2.094z" fill="#538f40"/>
</svg>
