<?xml version="1.0" encoding="utf-8"?>
<!-- Generator: Adobe Illustrator 16.0.0, SVG Export Plug-In . SVG Version: 6.00 Build 0)  -->
<!DOCTYPE svg PUBLIC "-//W3C//DTD SVG 1.1//EN" "http://www.w3.org/Graphics/SVG/1.1/DTD/svg11.dtd">
<svg version="1.1" id="Layer_1" xmlns="http://www.w3.org/2000/svg" xmlns:xlink="http://www.w3.org/1999/xlink" x="0px" y="0px"
	 width="283.46px" height="283.46px" viewBox="0 0 283.46 283.46" enable-background="new 0 0 283.46 283.46" xml:space="preserve">
<path fill="#538F40" d="M141.38,164.515c0,0,4.704-65.858-60.101-72.135C16.476,86.111,8.297,73.932,8.297,73.932
	S-2.336,229.846,140.698,185.419L141.38,164.515z"/>
<path fill="#65B045" d="M141.328,157.157c-0.976-17.299-8.558-59.798-60.048-64.777C16.476,86.111,8.297,73.932,8.297,73.932
	s-0.087,1.27-0.138,3.482C16.623,101.077,55.906,193.398,141.328,157.157z"/>
<path fill="#538F40" d="M141.554,164.515c0,0-4.693-65.858,60.1-72.135c64.813-6.269,73.011-18.448,73.011-18.448
	s10.617,155.914-132.401,111.487L141.554,164.515z"/>
<path fill="#65B045" d="M141.623,157.157c0.96-17.299,8.568-59.798,60.026-64.777c64.811-6.269,73.008-18.448,73.008-18.448
	s0.076,1.27,0.148,3.482C266.329,101.077,227.055,193.398,141.623,157.157z"/>
<path fill="#538F40" d="M143.551,183.467c0,1.158-0.931,2.097-2.102,2.097l0,0c-1.141,0-2.088-0.938-2.088-2.097v-24.216
	c0-1.155,0.94-2.094,2.088-2.094l0,0c1.171,0,2.102,0.938,2.102,2.094V183.467z"/>
</svg>
