<?xml version="1.0" encoding="UTF-8"?>
<!-- Created with Inkscape (http://www.inkscape.org/) -->
<svg width="16.844mm" height="19.323mm" version="1.1" viewBox="0 0 16.844 19.323" xmlns="http://www.w3.org/2000/svg">
 <g transform="translate(-144.73 -111.29)">
  <g id="Beer" transform="matrix(.26458 0 0 .26458 116.17 60.654)">
   <polygon points="171.61 198.93 168.7 203.28 159.72 200.59 167.51 195.68" fill="#0a3c26"/>
   <polygon points="158.5 195.18 162.08 191.36 167.51 195.68 164.6 200.03 158.31 201.69" fill="#0c4f32"/>
   <path d="m157.26 220.4 11.445-17.117-4.1-3.254-24.13 22.016-15.065 41.226c2.249 1.785 5.547 1.405 7.331-0.843l22.16-27.921c3.279-4.132 3.988-9.474 2.359-14.107z" fill="#13754b"/>
   <path d="m151.47 219.67 13.134-19.642-6.103-4.843-14.069 15.036c-4.881-0.535-9.921 1.371-13.2 5.502l-22.159 27.923c-1.784 2.247-1.404 5.546 0.844 7.329l15.492 12.294 3.258-4.095z" fill="#169b62"/>
   <path d="m128.66 259.17 22.145-27.913c2.055-2.59 2.624-6.002 1.524-9.131l-0.866-2.461-2.354-1.868-24.536 38.131-0.011 0.014 4.084 3.238c-5e-3 -4e-3 9e-3 -8e-3 0.014-0.01z" fill="#0c4f32"/>
   <path d="m124.58 255.93-0.011 0.014-11.4-9.044c-1e-3 -4e-3 -4e-3 -0.013-7e-3 -0.015l22.157-27.921c2.054-2.589 5.249-3.92 8.545-3.56l2.593 0.285 2.659 2.109c1.099 3.128 0.527 6.539-1.526 9.127z" fill="#13754b"/>
   <polygon points="138.51 238.37 150.81 231.26 154.9 234.5 138.47 255.21 134.38 251.96" fill="#ffe1aa"/>
   <rect transform="matrix(-.7833 -.6216 .6216 -.7833 91.472 499.57)" x="120.31" y="220.63" width="24.996" height="26.432" fill="#fff5e4"/>
  </g>
  <g id="Grolsch" transform="matrix(.26458 0 0 .26458 116.17 60.654)">
   <path d="m134.75 232.52c1.859 1.784 8.411 5.229 12.026 2.785 1.448-1.015 0.463-3.417-1.406-4.688-1.191-0.81-5.408-2.746-11.829-1.46-1.049-0.823-0.206-3.227 2.178-3.44 0.648-0.078 0.668-0.519 0.273-0.763-0.7-0.354-3.489-1.369-5.13 0.473-0.8 0.938-1.34 2.206 0.707 4.334-1.397 0.534-4.484 2.807-3.396 5.159 0.701 1.266 2.983 2.927 6.045 3.178l-5.415 1.749c-1.062 0.275-2.402 0.07-2.468-1.09 0.699 0.354 1.811-0.729 1.77-1.674s-1.306-1.743-2.313-1.621c-1.009 0.122-2.076 1.565-1.914 2.605 0.161 1.039 1.194 4.459 7.351 4.008 1.327-0.196 4.576-1.429 6.396-2.087 1.293-0.485 2.753-1.099 4.667-1.293l-3.373-2.516c-0.964 0.481-3.997 1.687-5.801-0.251-0.91-1.167-0.043-2.769 1.632-3.408zm1.349-0.64c1.221-0.477 3.922-1.094 7.085-0.306 0.989 0.319 1.63 0.946 1.6 1.45-0.042 0.718-3.579 2.277-8.685-1.144z" clip-rule="evenodd" fill-rule="evenodd"/>
  </g>
 </g>
</svg>
